<svg xmlns="http://www.w3.org/2000/svg" version="1.1" xmlns:xlink="http://www.w3.org/1999/xlink" xmlns:svgjs="http://svgjs.dev/svgjs" width="1440" height="560" preserveAspectRatio="none" viewBox="0 0 1440 560"><g mask="url(&quot;#SvgjsMask1021&quot;)" fill="none"><rect width="1440" height="560" x="0" y="0" fill="#0e2a47"></rect><path d="M 0,149 C 72,133.2 216,57.6 360,70 C 504,82.4 576,198 720,211 C 864,224 936,149 1080,135 C 1224,121 1368,139.8 1440,141L1440 560L0 560z" fill="#184a7e"></path><path d="M 0,384 C 96,409.6 288,509.4 480,512 C 672,514.6 768,388.6 960,397 C 1152,405.4 1344,522.6 1440,554L1440 560L0 560z" fill="#2264ab"></path></g><defs><mask id="SvgjsMask1021"><rect width="1440" height="560" fill="#ffffff"></rect></mask></defs></svg>